<svg width="128" height="16" viewBox="0 0 128 16" fill="none"
    xmlns="http://www.w3.org/2000/svg">
    <path d="M40.1287 11.6964C39.2001 10.8393 38.7358 9.57738 38.7358 7.91071C38.7358 6.23809 39.2001 4.97619 40.1287 4.125C41.0573 3.26786 42.3906 2.83928 44.1287 2.83928C45.8727 2.83928 47.2091 3.26786 48.1376 4.125C49.0662 4.97619 49.5305 6.23809 49.5305 7.91071C49.5305 9.57738 49.0662 10.8393 48.1376 11.6964C47.2091 12.5536 45.8727 12.9821 44.1287 12.9821C42.3906 12.9821 41.0573 12.5536 40.1287 11.6964ZM42.3876 5.58928C42.0186 6.07143 41.8341 6.84226 41.8341 7.90178C41.8341 8.96131 42.0186 9.73512 42.3876 10.2232C42.7567 10.7113 43.337 10.9554 44.1287 10.9554C44.9263 10.9554 45.5096 10.7113 45.8787 10.2232C46.2537 9.73512 46.4412 8.96131 46.4412 7.90178C46.4412 6.84226 46.2537 6.07143 45.8787 5.58928C45.5096 5.10714 44.9263 4.86607 44.1287 4.86607C43.337 4.86607 42.7567 5.10714 42.3876 5.58928Z" fill="white"/>
    <path d="M31.0208 12.0536C29.6696 12.0536 28.5773 11.6458 27.744 10.8304C26.9166 10.0149 26.5029 8.88393 26.5029 7.4375C26.5029 5.99107 26.9761 4.86309 27.9226 4.05357C28.869 3.24405 30.2261 2.83928 31.994 2.83928C32.8571 2.83928 33.7529 2.9375 34.6815 3.13393C35.6101 3.3244 36.3095 3.55952 36.7797 3.83928V12.1071C36.7797 13.4345 36.3422 14.4137 35.4672 15.0446C34.5922 15.6815 33.363 16 31.7797 16C30.2023 16 28.9851 15.8006 28.1279 15.4018C27.2767 15.0089 26.8511 14.3571 26.8511 13.4464C26.8511 13.2857 26.9017 13.1518 27.0029 13.0446C27.1101 12.9435 27.244 12.8929 27.4047 12.8929H28.7351C29.1636 12.8929 29.5059 13.0506 29.7619 13.3661C30.0892 13.7708 30.6696 13.9732 31.5029 13.9732C32.3422 13.9732 32.9166 13.8363 33.2261 13.5625C33.5357 13.2887 33.6904 12.8036 33.6904 12.1071V11.6875C32.738 11.9315 31.8482 12.0536 31.0208 12.0536ZM31.8065 5C30.3958 4.99405 29.6904 5.80952 29.6904 7.44643C29.6904 9.07738 30.3779 9.89286 31.7529 9.89286C32.3244 9.89286 32.9702 9.80357 33.6904 9.625V5.19643C33.1785 5.05952 32.5505 4.99405 31.8065 5Z" fill="white"/>
    <path d="M15.4479 12.1607C14.6621 11.6131 14.2693 10.8393 14.2693 9.83928C14.2693 8.83928 14.6621 8.07143 15.4479 7.53571C16.2395 7 17.2574 6.73214 18.5014 6.73214H21.4568C21.4568 6.03571 21.311 5.55059 21.0193 5.27678C20.7276 5.00298 20.2157 4.86607 19.4836 4.86607C18.7574 4.86607 18.2455 5.04762 17.9479 5.41071C17.6562 5.76786 17.2961 5.94643 16.8675 5.94643H15.5371C15.3764 5.94643 15.2425 5.89583 15.1354 5.79464C15.0342 5.6875 14.9836 5.55655 14.9836 5.40178C14.9836 3.69345 16.6056 2.83928 19.8496 2.83928C21.2663 2.83928 22.4032 3.15774 23.2604 3.79464C24.1175 4.42559 24.5461 5.40476 24.5461 6.73214V12.2589C24.5461 12.4196 24.4955 12.5506 24.3943 12.6518C24.2931 12.753 24.1621 12.8036 24.0014 12.8036H22.2782C22.1175 12.8036 21.9865 12.753 21.8854 12.6518C21.7842 12.5446 21.7336 12.4137 21.7336 12.2589V11.9821C20.7931 12.6548 19.7068 12.9881 18.4746 12.9821C17.2485 12.9821 16.2395 12.7083 15.4479 12.1607ZM18.7157 8.75893C18.299 8.75893 17.9687 8.86012 17.7246 9.0625C17.4865 9.26488 17.3675 9.52678 17.3675 9.84821C17.3675 10.1696 17.4925 10.4345 17.7425 10.6429C17.9925 10.8512 18.3467 10.9554 18.805 10.9554C19.7217 10.9554 20.6056 10.6875 21.4568 10.1518V8.75893H18.7157Z" fill="white"/>
    <path d="M0 11.9643V0.848214C0 0.616071 0.0803571 0.416667 0.241071 0.25C0.401786 0.0833333 0.598214 0 0.830357 0H7.64286C11.2441 0 13.0446 1.66071 13.0446 4.98214C13.0446 8.29762 11.2441 9.95536 7.64286 9.95536H3.36608V11.9643C3.36608 12.1964 3.28274 12.3958 3.11608 12.5625C2.95536 12.7232 2.75893 12.8036 2.52679 12.8036H0.848214C0.616071 12.8036 0.416667 12.7232 0.25 12.5625C0.0833333 12.3958 0 12.1964 0 11.9643ZM3.36608 7.42857H6.62501C7.62501 7.42857 8.38393 7.2619 8.90179 6.92857C9.41965 6.58929 9.67858 5.94048 9.67858 4.98214C9.67858 4.01786 9.41965 3.36905 8.90179 3.03571C8.38393 2.69643 7.62501 2.52679 6.62501 2.52679H3.36608V7.42857Z" fill="white"/>
    <path d="M84.5797 7.49904L83.5274 6.44693L82.5535 7.29337L81.6347 6.46275L80.6216 7.53069L81.0692 8.0607V11.2091L81.886 12.0556L82.7263 11.2012L82.2944 10.7899V8.17936L82.8363 7.67308L83.3389 8.17936V11.2091L84.1478 12.0239L85.0274 11.1459L84.5797 10.7266V7.49904Z" fill="white"/>
    <path d="M89.5747 7.30924V11.2012L91.3025 11.9449L92.9517 11.0747V7.26172L91.1689 6.40741L89.5747 7.30924ZM91.6873 11.0034L90.7213 10.6001V7.34873L91.6873 7.78385V11.0034Z" fill="white"/>
    <path d="M103.405 11.051L102.25 10.5527V9.88029L104.481 8.21907L102.965 6.45491L101.151 7.35674V11.2409L102.847 11.945L104.512 10.79C104.19 10.5764 103.805 11.2409 103.412 11.051H103.405ZM102.25 7.38049L103.302 8.66202L102.25 9.40567V7.38049Z" fill="white"/>
    <path d="M121.255 5.15745L120.392 4.27936L119.551 5.14163L120.415 6.00389L121.255 5.15745Z" fill="white"/>
    <path d="M97.0354 4.99933C97.2867 5.18918 97.4751 4.86489 97.7657 4.944L99.0773 5.57679V6.67638L98.5197 6.40745L96.949 7.30927V11.2012L98.6767 11.9449L100.318 11.0747V4.95191L98.6846 4.23994L97.0354 4.99933ZM99.0773 11.0035L98.1113 10.6001V7.34877L99.0773 7.78389V11.0035Z" fill="white"/>
    <path d="M116.889 7.47522V4.31096C116.889 4.25559 115.632 5.56081 115.632 5.56081V11.2328L116.418 12.0793L117.258 11.2249L116.85 10.8135V8.20303L117.313 7.69674L117.753 8.20303V13.1234L118.994 11.8815V7.49106L117.957 6.42314L116.889 7.47522Z" fill="white"/>
    <path d="M121.161 7.26965L120.36 6.53396L119.536 7.40414L119.865 7.76012V11.2092L120.682 12.0556L121.593 11.1301L121.161 10.6712V7.26965Z" fill="white"/>
    <path d="M123.392 4.311L122.096 5.47387V11.2091L122.913 12.0555L123.824 11.13L123.392 10.6712V4.311Z" fill="white"/>
    <path d="M126.698 11.051L125.544 10.5527V9.88029L127.774 8.21907L126.258 6.45491L124.452 7.35674V11.2409L126.148 11.945L127.821 10.79C127.491 10.5764 127.106 11.2409 126.714 11.051H126.698ZM125.551 7.38049L126.604 8.66202L125.551 9.40567V7.38049Z" fill="white"/>
    <path d="M113.433 5.6559C114.494 5.86157 115.334 4.99134 115.829 4.50088C115.829 4.42968 115.742 4.43763 115.664 4.54047C115.028 5.18123 114.651 4.05004 114.093 3.876C112.868 3.47256 111.965 4.8806 111.007 5.4027V9.83264L110.638 10.1966C109.966 9.54178 109.541 8.67195 109.436 7.7363C109.145 5.83775 110.936 4.57205 112.46 3.78098C111.694 3.76727 110.938 3.94777 110.26 4.30581C109.582 4.66386 109.004 5.188 108.58 5.82991C108.243 6.44706 108.046 7.13116 108.001 7.83383C107.956 8.5365 108.065 9.24055 108.321 9.89599C108.709 10.7709 109.406 11.4689 110.278 11.8536C111.149 12.2383 112.131 12.2821 113.033 11.9765C113.463 11.8278 113.85 11.5735 114.159 11.2365C114.467 10.8995 114.688 10.4904 114.8 10.0462C114.329 10.1016 113.944 10.6395 113.441 10.6316L113.433 5.6559ZM113.111 10.7028C112.726 10.7991 112.324 10.8072 111.936 10.7265C111.547 10.6457 111.181 10.4781 110.865 10.2361L112.656 8.89132V4.68281L113.111 5.0626V10.7028Z" fill="white"/>
    <path d="M88.3963 7.97376L89.2523 7.34087L87.4538 6.48655L85.6318 7.34879V11.0906L87.281 11.8817C87.3586 11.9268 87.4467 11.9505 87.5363 11.9505C87.6259 11.9505 87.7139 11.9268 87.7915 11.8817L89.1502 10.8453H89.0324C88.844 11.0094 88.6211 11.1285 88.3806 11.1934L86.9512 10.521V7.40421L88.3963 7.97376Z" fill="white"/>
    <path d="M79.7969 7.17472L78.1398 6.43116L76.4749 7.26964L76.5534 7.34873C76.8361 7.19051 77.1738 7.0482 77.3388 7.1273L78.5011 7.62568C78.5735 7.66752 78.6312 7.73112 78.666 7.80761V8.59867L77.8807 8.25055L76.1921 9.15238V11.1696L77.8178 11.9607L79.1058 11.4623L79.8126 12.0556L80.598 11.2646L79.8126 10.4735L79.7969 7.17472ZM78.666 11.225L77.2603 10.6001V9.01796L78.666 9.68242V11.225Z" fill="white"/>
    <path d="M70.192 4.33492C69.6973 4.87284 68.8412 5.18133 68.3936 5.79045V9.16831C68.3936 9.67459 68.0323 9.55592 68.0637 9.85653L70.0507 8.55125V5.0469L72.6109 3.18782L72.4774 3.12457C71.8177 3.40144 71.1423 2.83193 70.3727 2.87939C69.2905 2.92871 68.2656 3.38284 67.4983 4.15299C67.9254 3.94772 68.3979 3.85726 68.87 3.89053C69.342 3.9238 69.7975 4.07966 70.192 4.34284" fill="white"/>
    <path d="M73.7103 7.07976C74.3561 6.71798 74.9375 6.25009 75.4302 5.69539C75.8072 5.1021 74.7391 3.91553 74.1894 3.06118L73.726 2.93459L70.4904 5.26037V9.21569C70.4904 9.69824 70.239 9.56368 70.2547 9.83265L72.2967 8.4562V4.54047L72.8386 4.1291V10.2678L71.7391 9.983C71.0255 9.90091 70.3029 10.0031 69.6393 10.2798C68.9757 10.5566 68.3929 10.9989 67.9458 11.5651C68.6754 11.2472 69.4718 11.1163 70.2639 11.1839C71.056 11.2515 71.8191 11.5157 72.4852 11.9527L75.3046 9.94341C75.7601 9.51623 75.4852 8.74102 75.5009 8.19519C75.4224 7.26964 74.3779 7.21424 73.7103 7.07976ZM73.4669 10.5605L73.2705 10.4497V7.58605C73.4904 7.58605 73.6239 7.85504 73.6161 8.10818C73.6161 8.10818 73.6161 10.1017 73.6161 10.2915C73.6172 10.3436 73.6018 10.3947 73.5721 10.4373C73.5425 10.48 73.5001 10.512 73.4511 10.5288L73.4669 10.5605ZM73.2548 6.66839V4.83316C73.7888 5.22078 74.2836 6.41525 73.2548 6.66839Z" fill="white"/>
    <path d="M57.3999 12.0319C57.0524 12.0396 56.7096 11.9492 56.4104 11.7708C56.1325 11.6016 55.9069 11.3578 55.7586 11.0668C55.605 10.7462 55.5271 10.3943 55.5308 10.0384C55.525 9.68389 55.606 9.33348 55.7665 9.01796C55.9147 8.72694 56.1404 8.48317 56.4183 8.3139C56.7174 8.13626 57.0607 8.04837 57.4078 8.06071C57.6808 8.0603 57.95 8.12538 58.1932 8.25055C58.4249 8.37073 58.6182 8.5545 58.7508 8.7806V6.40741H59.3869V11.9449H58.8057L58.7508 11.312C58.6133 11.5145 58.4337 11.6846 58.2245 11.8103C57.9762 11.9618 57.6901 12.0387 57.3999 12.0319ZM57.4628 11.4782C57.7004 11.4822 57.9343 11.4191 58.1382 11.2961C58.3337 11.1767 58.4917 11.004 58.5937 10.7979C58.7025 10.5625 58.7589 10.3059 58.7589 10.0463C58.7589 9.78664 58.7025 9.53018 58.5937 9.29481C58.4917 9.08865 58.3337 8.91584 58.1382 8.79644C57.9343 8.67345 57.7004 8.61044 57.4628 8.61451C57.2304 8.61255 57.002 8.67551 56.8031 8.79644C56.6075 8.91584 56.4496 9.08865 56.3476 9.29481C56.2388 9.53018 56.1824 9.78664 56.1824 10.0463C56.1824 10.3059 56.2388 10.5625 56.3476 10.7979C56.4496 11.004 56.6075 11.1767 56.8031 11.2961C57.002 11.4171 57.2304 11.4801 57.4628 11.4782Z" fill="white"/>
    <path d="M62.1518 12.0318C61.8162 12.0389 61.4851 11.9542 61.1937 11.7866C60.9157 11.6184 60.6878 11.378 60.5339 11.0905C60.3699 10.7677 60.2889 10.4087 60.2983 10.0462C60.2906 9.68394 60.3715 9.32536 60.5339 9.00205C60.6831 8.71114 60.9121 8.4695 61.1937 8.30591C61.49 8.13626 61.8267 8.05141 62.1675 8.06064C62.4983 8.05104 62.8251 8.13611 63.1099 8.30591C63.3708 8.4631 63.5829 8.69045 63.7225 8.96246C63.8631 9.23053 63.936 9.5294 63.9345 9.83261V9.9988C63.9303 10.062 63.9303 10.1254 63.9345 10.1886H60.9345C60.9405 10.4447 61.0108 10.695 61.1387 10.9164C61.2467 11.097 61.4014 11.2447 61.5863 11.3436C61.7732 11.4541 61.986 11.5125 62.2028 11.5125C62.4196 11.5125 62.6324 11.4541 62.8193 11.3436C62.9969 11.2263 63.1319 11.0542 63.2041 10.8531H63.8403C63.7405 11.1967 63.5374 11.5007 63.2591 11.7233C62.9377 11.9546 62.5455 12.0639 62.1518 12.0318ZM62.1518 8.5986C61.8668 8.60083 61.5906 8.69819 61.3664 8.87546C61.2494 8.97318 61.1529 9.0935 61.0828 9.22937C61.0126 9.36523 60.9703 9.51388 60.9581 9.66652H63.3141C63.3134 9.5171 63.2816 9.36949 63.2207 9.23323C63.1599 9.09697 63.0713 8.97507 62.9607 8.87546C62.7374 8.68018 62.447 8.58081 62.1518 8.5986Z" fill="white"/>
</svg>
